<svg xmlns="http://www.w3.org/2000/svg" viewBox="0 0 1024 1024" width="1024" height="1024">
    <defs>
      <linearGradient id="fs-ink-full-foil" x1="8%" y1="6%" x2="92%" y2="94%">
        <stop offset="0%" stop-color="#9bb0ff" /><stop offset="18%" stop-color="#c5a8ff" /><stop offset="38%" stop-color="#ffb8d9" /><stop offset="55%" stop-color="#fff0b8" /><stop offset="72%" stop-color="#b8f0c8" /><stop offset="88%" stop-color="#a8d8ff" /><stop offset="100%" stop-color="#9bb0ff" />
      </linearGradient>
      <radialGradient id="fs-ink-full-pearl" cx="38%" cy="32%" r="78%">
        <stop offset="0%" stop-color="#fff6d9" />
        <stop offset="22%" stop-color="#ffe1c0" />
        <stop offset="45%" stop-color="#f2b8da" />
        <stop offset="70%" stop-color="#a8c0ff" />
        <stop offset="100%" stop-color="#7e90d8" />
      </radialGradient>
      <radialGradient id="fs-ink-full-paperCream" cx="50%" cy="42%" r="78%">
        <stop offset="0%" stop-color="#f1ecde" />
        <stop offset="68%" stop-color="#e9e3d2" />
        <stop offset="100%" stop-color="#ddd5c0" />
      </radialGradient>
      <filter id="fs-ink-full-grain" x="0%" y="0%" width="100%" height="100%">
        <feTurbulence type="fractalNoise" baseFrequency="0.9" numOctaves="2" seed="7" />
        <feColorMatrix values="0 0 0 0 0.06  0 0 0 0 0.05  0 0 0 0 0.04  0 0 0 0 0.09" />
      </filter>
      <linearGradient id="fs-ink-full-streak" x1="0%" y1="0%" x2="100%" y2="100%">
        <stop offset="0%" stop-color="#fff" stop-opacity="0" />
        <stop offset="44%" stop-color="#fff" stop-opacity="0" />
        <stop offset="52%" stop-color="#fff" stop-opacity="0.55" />
        <stop offset="60%" stop-color="#fff" stop-opacity="0" />
        <stop offset="100%" stop-color="#fff" stop-opacity="0" />
      </linearGradient>
    </defs>
        <rect width="1024" height="1024" fill="#0a0a0c" />
        <rect width="1024" height="1024" fill="#1a1916" filter="url(#fs-ink-full-grain)" opacity="0.6" /><g><circle cx="419.60" cy="576.29" r="14.81" fill="url(#fs-ink-full-foil)" opacity="0.856" /><circle cx="537.26" cy="399.71" r="14.76" fill="url(#fs-ink-full-foil)" opacity="0.854" /><circle cx="570.46" cy="614.01" r="14.71" fill="#f1ecde" opacity="0.852" /><circle cx="397.68" cy="475.53" r="14.67" fill="url(#fs-ink-full-foil)" opacity="0.850" /><circle cx="623.09" cy="460.67" r="14.62" fill="url(#fs-ink-full-foil)" opacity="0.848" /><circle cx="463.86" cy="627.04" r="14.58" fill="url(#fs-ink-full-foil)" opacity="0.846" /><circle cx="469.02" cy="392.50" r="14.53" fill="#f1ecde" opacity="0.844" /><circle cx="626.41" cy="572.13" r="14.49" fill="url(#fs-ink-full-foil)" opacity="0.842" /><circle cx="384.89" cy="545.51" r="14.44" fill="url(#fs-ink-full-foil)" opacity="0.840" /><circle cx="584.27" cy="399.60" r="14.40" fill="url(#fs-ink-full-foil)" opacity="0.839" /><circle cx="535.00" cy="645.80" r="14.36" fill="#f1ecde" opacity="0.837" /><circle cx="403.00" cy="427.58" r="14.32" fill="url(#fs-ink-full-foil)" opacity="0.835" /><circle cx="651.47" cy="500.45" r="14.28" fill="url(#fs-ink-full-foil)" opacity="0.833" /><circle cx="415.58" cy="616.23" r="14.24" fill="url(#fs-ink-full-foil)" opacity="0.832" /><circle cx="512.70" cy="368.00" r="14.20" fill="#f1ecde" opacity="0.830" /><circle cx="610.09" cy="620.13" r="14.16" fill="url(#fs-ink-full-foil)" opacity="0.828" /><circle cx="364.69" cy="498.35" r="14.12" fill="url(#fs-ink-full-foil)" opacity="0.827" /><circle cx="631.39" cy="421.39" r="14.09" fill="url(#fs-ink-full-foil)" opacity="0.825" /><circle cx="484.83" cy="661.34" r="14.05" fill="#f1ecde" opacity="0.824" /><circle cx="430.15" cy="381.94" r="14.01" fill="url(#fs-ink-full-foil)" opacity="0.822" /><circle cx="662.01" cy="553.11" r="13.98" fill="url(#fs-ink-full-foil)" opacity="0.820" /><circle cx="371.98" cy="583.85" r="13.94" fill="url(#fs-ink-full-foil)" opacity="0.819" /><circle cx="567.34" cy="362.73" r="13.90" fill="#f1ecde" opacity="0.817" /><circle cx="572.70" cy="661.11" r="13.87" fill="url(#fs-ink-full-foil)" opacity="0.816" /><circle cx="364.91" cy="442.29" r="13.83" fill="url(#fs-ink-full-foil)" opacity="0.814" /><circle cx="669.23" cy="463.52" r="13.80" fill="url(#fs-ink-full-foil)" opacity="0.813" /><circle cx="427.93" cy="655.46" r="13.77" fill="#f1ecde" opacity="0.811" /><circle cx="476.73" cy="347.74" r="13.73" fill="url(#fs-ink-full-foil)" opacity="0.810" /><circle cx="650.35" cy="610.28" r="13.70" fill="url(#fs-ink-full-foil)" opacity="0.809" /><circle cx="341.92" cy="533.20" r="13.67" fill="url(#fs-ink-full-foil)" opacity="0.807" /><circle cx="624.18" cy="380.21" r="13.63" fill="#f1ecde" opacity="0.806" /><circle cx="518.37" cy="686.61" r="13.60" fill="url(#fs-ink-full-foil)" opacity="0.804" /><circle cx="388.21" cy="386.38" r="13.57" fill="url(#fs-ink-full-foil)" opacity="0.803" /><circle cx="689.76" cy="521.09" r="13.54" fill="url(#fs-ink-full-foil)" opacity="0.802" /><circle cx="373.55" cy="626.40" r="13.51" fill="#f1ecde" opacity="0.800" /><circle cx="537.04" cy="332.54" r="13.48" fill="url(#fs-ink-full-foil)" opacity="0.799" /><circle cx="615.66" cy="662.54" r="13.45" fill="url(#fs-ink-full-foil)" opacity="0.798" /><circle cx="332.35" cy="470.66" r="13.42" fill="url(#fs-ink-full-foil)" opacity="0.796" /><circle cx="673.75" cy="420.36" r="13.39" fill="#f1ecde" opacity="0.795" /><circle cx="454.16" cy="690.30" r="13.36" fill="url(#fs-ink-full-foil)" opacity="0.794" /><circle cx="433.58" cy="340.06" r="13.33" fill="url(#fs-ink-full-foil)" opacity="0.793" /><circle cx="687.36" cy="586.40" r="13.30" fill="url(#fs-ink-full-foil)" opacity="0.791" /><circle cx="331.02" cy="576.10" r="13.27" fill="#f1ecde" opacity="0.790" /><circle cx="602.85" cy="341.16" r="13.24" fill="url(#fs-ink-full-foil)" opacity="0.789" /><circle cx="560.78" cy="700.78" r="13.21" fill="url(#fs-ink-full-foil)" opacity="0.788" /><circle cx="347.28" cy="404.95" r="13.18" fill="url(#fs-ink-full-foil)" opacity="0.786" /><circle cx="707.21" cy="479.43" r="13.15" fill="#f1ecde" opacity="0.785" /><circle cx="389.16" cy="669.02" r="13.12" fill="url(#fs-ink-full-foil)" opacity="0.784" /><circle cx="496.40" cy="311.81" r="13.10" fill="url(#fs-ink-full-foil)" opacity="0.783" /><circle cx="659.78" cy="650.05" r="13.07" fill="url(#fs-ink-full-foil)" opacity="0.781" /><circle cx="308.36" cy="510.01" r="13.04" fill="#f1ecde" opacity="0.780" /><circle cx="664.55" cy="374.97" r="13.01" fill="url(#fs-ink-full-foil)" opacity="0.779" /><circle cx="491.94" cy="717.48" r="12.99" fill="url(#fs-ink-full-foil)" opacity="0.778" /><circle cx="387.15" cy="345.83" r="12.96" fill="url(#fs-ink-full-foil)" opacity="0.777" /><circle cx="717.66" cy="550.45" r="12.93" fill="#f1ecde" opacity="0.776" /><circle cx="333.21" cy="623.30" r="12.91" fill="url(#fs-ink-full-foil)" opacity="0.775" /><circle cx="569.02" cy="307.85" r="12.88" fill="url(#fs-ink-full-foil)" opacity="0.773" /><circle cx="608.47" cy="702.26" r="12.85" fill="url(#fs-ink-full-foil)" opacity="0.772" /><circle cx="311.09" cy="436.40" r="12.83" fill="#f1ecde" opacity="0.771" /><circle cx="712.45" cy="431.54" r="12.80" fill="url(#fs-ink-full-foil)" opacity="0.770" /><circle cx="417.97" cy="707.93" r="12.77" fill="url(#fs-ink-full-foil)" opacity="0.769" /><circle cx="448.60" cy="302.74" r="12.75" fill="url(#fs-ink-full-foil)" opacity="0.768" /><circle cx="701.23" cy="624.14" r="12.72" fill="#f1ecde" opacity="0.767" /><circle cx="295.44" cy="557.40" r="12.70" fill="url(#fs-ink-full-foil)" opacity="0.766" /><circle cx="641.78" cy="331.18" r="12.67" fill="url(#fs-ink-full-foil)" opacity="0.765" /><circle cx="538.60" cy="734.27" r="12.65" fill="url(#fs-ink-full-foil)" opacity="0.763" /><circle cx="341.27" cy="365.24" r="12.62" fill="#f1ecde" opacity="0.762" /><circle cx="738.30" cy="504.85" r="12.60" fill="url(#fs-ink-full-foil)" opacity="0.761" /><circle cx="349.05" cy="671.02" r="12.57" fill="url(#fs-ink-full-foil)" opacity="0.760" /><circle cx="524.81" cy="283.41" r="12.55" fill="url(#fs-ink-full-foil)" opacity="0.759" /><circle cx="657.76" cy="690.17" r="12.52" fill="#f1ecde" opacity="0.758" /><circle cx="282.93" cy="478.90" r="12.50" fill="url(#fs-ink-full-foil)" opacity="0.757" /><circle cx="704.29" cy="380.97" r="12.48" fill="url(#fs-ink-full-foil)" opacity="0.756" /><circle cx="458.43" cy="739.71" r="12.45" fill="url(#fs-ink-full-foil)" opacity="0.755" /><circle cx="397.08" cy="306.84" r="12.43" fill="#f1ecde" opacity="0.754" /><circle cx="736.48" cy="586.04" r="12.40" fill="url(#fs-ink-full-foil)" opacity="0.753" /><circle cx="295.36" cy="609.54" r="12.38" fill="url(#fs-ink-full-foil)" opacity="0.752" /><circle cx="606.34" cy="292.63" r="12.36" fill="url(#fs-ink-full-foil)" opacity="0.751" /><circle cx="591.02" cy="738.62" r="12.33" fill="#f1ecde" opacity="0.750" /><circle cx="299.60" cy="397.71" r="12.31" fill="url(#fs-ink-full-foil)" opacity="0.749" /><circle cx="746.97" cy="452.51" r="12.29" fill="url(#fs-ink-full-foil)" opacity="0.748" /><circle cx="378.27" cy="715.58" r="12.26" fill="url(#fs-ink-full-foil)" opacity="0.747" /><circle cx="472.90" cy="270.39" r="12.24" fill="#f1ecde" opacity="0.746" /><circle cx="704.96" cy="664.47" r="12.22" fill="url(#fs-ink-full-foil)" opacity="0.745" /><circle cx="265.56" cy="530.00" r="12.20" fill="url(#fs-ink-full-foil)" opacity="0.744" /><circle cx="682.36" cy="331.42" r="12.17" fill="url(#fs-ink-full-foil)" opacity="0.743" /><circle cx="508.35" cy="761.39" r="12.15" fill="#f1ecde" opacity="0.742" /><circle cx="345.47" cy="324.78" r="12.13" fill="url(#fs-ink-full-foil)" opacity="0.741" /><circle cx="762.40" cy="537.67" r="12.11" fill="url(#fs-ink-full-foil)" opacity="0.740" /><circle cx="309.10" cy="662.89" r="12.08" fill="url(#fs-ink-full-foil)" opacity="0.739" /><circle cx="559.90" cy="262.56" r="12.06" fill="#f1ecde" opacity="0.738" /><circle cx="645.77" cy="729.24" r="12.04" fill="url(#fs-ink-full-foil)" opacity="0.737" /><circle cx="265.54" cy="441.86" r="12.02" fill="url(#fs-ink-full-foil)" opacity="0.736" /><circle cx="742.12" cy="396.73" r="12.00" fill="url(#fs-ink-full-foil)" opacity="0.736" /><circle cx="419.78" cy="753.48" r="11.97" fill="#f1ecde" opacity="0.735" /><circle cx="416.47" cy="270.62" r="11.95" fill="url(#fs-ink-full-foil)" opacity="0.734" /><circle cx="746.49" cy="625.94" r="11.93" fill="url(#fs-ink-full-foil)" opacity="0.733" /><circle cx="261.07" cy="586.69" r="11.91" fill="url(#fs-ink-full-foil)" opacity="0.732" /><circle cx="647.14" cy="286.48" r="11.89" fill="#f1ecde" opacity="0.731" /><circle cx="564.91" cy="770.64" r="11.87" fill="url(#fs-ink-full-foil)" opacity="0.730" /><circle cx="297.40" cy="356.38" r="11.85" fill="url(#fs-ink-full-foil)" opacity="0.729" /><circle cx="776.44" cy="481.66" r="11.82" fill="url(#fs-ink-full-foil)" opacity="0.728" /><circle cx="336.80" cy="713.81" r="11.80" fill="#f1ecde" opacity="0.727" /><circle cx="504.84" cy="243.77" r="11.78" fill="url(#fs-ink-full-foil)" opacity="0.726" /><circle cx="699.21" cy="705.72" r="11.76" fill="url(#fs-ink-full-foil)" opacity="0.726" /><circle cx="242.03" cy="495.55" r="11.74" fill="url(#fs-ink-full-foil)" opacity="0.725" /><circle cx="723.00" cy="341.10" r="11.72" fill="#f1ecde" opacity="0.724" /><circle cx="471.70" cy="781.59" r="11.70" fill="url(#fs-ink-full-foil)" opacity="0.723" /><circle cx="359.02" cy="285.12" r="11.68" fill="url(#fs-ink-full-foil)" opacity="0.722" /><circle cx="779.08" cy="576.21" r="11.66" fill="url(#fs-ink-full-foil)" opacity="0.721" /><circle cx="270.78" cy="645.58" r="11.64" fill="#f1ecde" opacity="0.720" /><circle cx="599.97" cy="249.57" r="11.62" fill="url(#fs-ink-full-foil)" opacity="0.719" /><circle cx="624.82" cy="765.88" r="11.60" fill="url(#fs-ink-full-foil)" opacity="0.718" /><circle cx="256.37" cy="400.59" r="11.58" fill="url(#fs-ink-full-foil)" opacity="0.718" /><circle cx="776.73" cy="421.14" r="11.56" fill="#f1ecde" opacity="0.717" /><circle cx="377.69" cy="758.72" r="11.54" fill="url(#fs-ink-full-foil)" opacity="0.716" /><circle cx="444.13" cy="238.35" r="11.52" fill="url(#fs-ink-full-foil)" opacity="0.715" /><circle cx="747.74" cy="668.50" r="11.50" fill="url(#fs-ink-full-foil)" opacity="0.714" /><circle cx="231.46" cy="556.00" r="11.48" fill="#f1ecde" opacity="0.713" /><circle cx="689.78" cy="289.26" r="11.46" fill="url(#fs-ink-full-foil)" opacity="0.713" /><circle cx="531.44" cy="797.33" r="11.44" fill="url(#fs-ink-full-foil)" opacity="0.712" /><circle cx="304.20" cy="314.04" r="11.42" fill="url(#fs-ink-full-foil)" opacity="0.711" /><circle cx="799.95" cy="517.62" r="11.40" fill="#f1ecde" opacity="0.710" /><circle cx="295.13" cy="703.02" r="11.38" fill="url(#fs-ink-full-foil)" opacity="0.709" /><circle cx="542.98" cy="223.67" r="11.36" fill="url(#fs-ink-full-foil)" opacity="0.708" /><circle cx="684.51" cy="746.34" r="11.34" fill="url(#fs-ink-full-foil)" opacity="0.708" /><circle cx="225.54" cy="455.54" r="11.32" fill="#f1ecde" opacity="0.707" /><circle cx="762.21" cy="359.61" r="11.30" fill="url(#fs-ink-full-foil)" opacity="0.706" /><circle cx="430.17" cy="794.32" r="11.28" fill="url(#fs-ink-full-foil)" opacity="0.705" /><circle cx="381.20" cy="247.67" r="11.27" fill="url(#fs-ink-full-foil)" opacity="0.704" /><circle cx="787.90" cy="618.91" r="11.25" fill="#f1ecde" opacity="0.703" /><circle cx="235.44" cy="619.89" r="11.23" fill="url(#fs-ink-full-foil)" opacity="0.703" /><circle cx="643.47" cy="244.76" r="11.21" fill="url(#fs-ink-full-foil)" opacity="0.702" /><circle cx="595.85" cy="798.79" r="11.19" fill="url(#fs-ink-full-foil)" opacity="0.701" /><circle cx="255.63" cy="356.67" r="11.17" fill="#f1ecde" opacity="0.700" /><circle cx="806.91" cy="453.17" r="11.15" fill="url(#fs-ink-full-foil)" opacity="0.699" /><circle cx="333.72" cy="755.36" r="11.13" fill="url(#fs-ink-full-foil)" opacity="0.699" /><circle cx="478.97" cy="211.18" r="11.12" fill="url(#fs-ink-full-foil)" opacity="0.698" /><circle cx="740.27" cy="712.13" r="11.10" fill="#f1ecde" opacity="0.697" /><circle cx="207.55" cy="518.64" r="11.08" fill="url(#fs-ink-full-foil)" opacity="0.696" /><circle cx="732.69" cy="300.79" r="11.06" fill="url(#fs-ink-full-foil)" opacity="0.695" /><circle cx="491.88" cy="817.75" r="11.04" fill="url(#fs-ink-full-foil)" opacity="0.695" /><circle cx="319.72" cy="272.22" r="11.02" fill="#f1ecde" opacity="0.694" /><circle cx="816.67" cy="559.06" r="11.01" fill="url(#fs-ink-full-foil)" opacity="0.693" /><circle cx="254.78" cy="683.62" r="10.99" fill="url(#fs-ink-full-foil)" opacity="0.692" /><circle cx="585.96" cy="210.80" r="10.97" fill="url(#fs-ink-full-foil)" opacity="0.692" /><circle cx="661.37" cy="784.87" r="10.95" fill="#f1ecde" opacity="0.691" /><circle cx="216.67" cy="411.39" r="10.93" fill="url(#fs-ink-full-foil)" opacity="0.690" /><circle cx="798.57" cy="386.32" r="10.92" fill="url(#fs-ink-full-foil)" opacity="0.689" /><circle cx="385.21" cy="799.09" r="10.90" fill="url(#fs-ink-full-foil)" opacity="0.688" /><circle cx="411.27" cy="213.80" r="10.88" fill="#f1ecde" opacity="0.688" /><circle cx="788.51" cy="664.28" r="10.86" fill="url(#fs-ink-full-foil)" opacity="0.687" /><circle cx="204.36" cy="586.71" r="10.84" fill="url(#fs-ink-full-foil)" opacity="0.686" /><circle cx="688.89" cy="248.35" r="10.83" fill="url(#fs-ink-full-foil)" opacity="0.685" /><circle cx="559.80" cy="826.79" r="10.81" fill="#f1ecde" opacity="0.685" /><circle cx="263.42" cy="311.60" r="10.79" fill="url(#fs-ink-full-foil)" opacity="0.684" /><circle cx="831.56" cy="491.79" r="10.77" fill="url(#fs-ink-full-foil)" opacity="0.683" /><circle cx="289.39" cy="743.41" r="10.76" fill="url(#fs-ink-full-foil)" opacity="0.682" /><circle cx="519.85" cy="190.10" r="10.74" fill="#f1ecde" opacity="0.682" /><circle cx="724.24" cy="755.34" r="10.72" fill="url(#fs-ink-full-foil)" opacity="0.681" /><circle cx="190.25" cy="475.84" r="10.70" fill="url(#fs-ink-full-foil)" opacity="0.680" /><circle cx="774.40" cy="320.80" r="10.69" fill="url(#fs-ink-full-foil)" opacity="0.679" /><circle cx="447.49" cy="831.10" r="10.67" fill="#f1ecde" opacity="0.679" /><circle cx="343.56" cy="232.38" r="10.65" fill="url(#fs-ink-full-foil)" opacity="0.678" /><circle cx="825.93" cy="604.66" r="10.64" fill="url(#fs-ink-full-foil)" opacity="0.677" /><circle cx="217.14" cy="656.12" r="10.62" fill="url(#fs-ink-full-foil)" opacity="0.677" /><circle cx="632.39" cy="205.74" r="10.60" fill="#f1ecde" opacity="0.676" /><circle cx="630.42" cy="819.96" r="10.58" fill="url(#fs-ink-full-foil)" opacity="0.675" /><circle cx="215.88" cy="364.52" r="10.57" fill="url(#fs-ink-full-foil)" opacity="0.674" /><circle cx="830.81" cy="420.48" r="10.55" fill="url(#fs-ink-full-foil)" opacity="0.674" /><circle cx="338.29" cy="795.58" r="10.53" fill="#f1ecde" opacity="0.673" /><circle cx="448.37" cy="184.71" r="10.52" fill="url(#fs-ink-full-foil)" opacity="0.672" /><circle cx="780.69" cy="710.87" r="10.50" fill="url(#fs-ink-full-foil)" opacity="0.671" /><circle cx="178.69" cy="546.95" r="10.48" fill="url(#fs-ink-full-foil)" opacity="0.671" /><circle cx="734.74" cy="260.44" r="10.47" fill="#f1ecde" opacity="0.670" /><circle cx="517.71" cy="848.81" r="10.45" fill="url(#fs-ink-full-foil)" opacity="0.669" /><circle cx="279.70" cy="266.88" r="10.43" fill="url(#fs-ink-full-foil)" opacity="0.669" /><circle cx="849.72" cy="535.88" r="10.42" fill="url(#fs-ink-full-foil)" opacity="0.668" /><circle cx="512" cy="512" r="118" fill="url(#fs-ink-full-pearl)" /><circle cx="512" cy="512" r="118" fill="url(#fs-ink-full-streak)" opacity="0.85" /><circle cx="512" cy="512" r="118" fill="none" stroke="#1a1916" stroke-width="3" opacity="0.5" /></g></svg>